<svg xmlns="http://www.w3.org/2000/svg" width="257.608" height="114.123" viewBox="0 0 257.608 114.123"><g transform="translate(-510.753 -483.469)"><path d="M517.557,583.984a9.5,9.5,0,0,0,6.8-2.721,9.778,9.778,0,0,0,3.094-6.68v-84.31a6.759,6.759,0,0,1,6.8-6.8,6.37,6.37,0,0,1,4.762,1.98,6.677,6.677,0,0,1,1.918,4.824v83.938a22.561,22.561,0,0,1-1.856,9.092,23.5,23.5,0,0,1-12.433,12.434,22.568,22.568,0,0,1-9.093,1.855,6.8,6.8,0,1,1,0-13.608Z" transform="translate(0 0)" fill="#fff"/><path d="M543.91,530.58a22.028,22.028,0,0,1,1.794-8.845,23.4,23.4,0,0,1,12.247-12.248,23.164,23.164,0,0,1,17.876,0,23.24,23.24,0,0,1,12.309,12.248,22.063,22.063,0,0,1,1.794,8.845v38.411a22.045,22.045,0,0,1-1.794,8.844,23.4,23.4,0,0,1-12.248,12.248,23.159,23.159,0,0,1-17.876,0A23.223,23.223,0,0,1,545.7,577.835a22.01,22.01,0,0,1-1.794-8.844Zm13.361,38.411a9.076,9.076,0,0,0,2.844,6.741,9.388,9.388,0,0,0,6.8,2.784,9.483,9.483,0,0,0,6.99-2.784,9.18,9.18,0,0,0,2.783-6.741V530.58a8.723,8.723,0,0,0-.8-3.712,10.509,10.509,0,0,0-2.1-3.03,9.428,9.428,0,0,0-3.092-2.041,9.773,9.773,0,0,0-3.774-.743,9.331,9.331,0,0,0-6.866,2.783,9.186,9.186,0,0,0-2.782,6.742Z" transform="translate(4.945 3.613)" fill="#fff"/><path d="M590.63,490.58a6.551,6.551,0,0,1,6.68-6.68,6.653,6.653,0,0,1,6.557,6.68v22.889a29.629,29.629,0,0,1,4.639-1.608,20.645,20.645,0,0,1,5.134-.619,22.371,22.371,0,0,1,8.969,1.794,23.4,23.4,0,0,1,12.248,12.248,22.061,22.061,0,0,1,1.794,8.845v38.411a22.045,22.045,0,0,1-1.794,8.844,23.22,23.22,0,0,1-12.31,12.247,23.163,23.163,0,0,1-17.875,0,23.39,23.39,0,0,1-12.248-12.247,22.006,22.006,0,0,1-1.794-8.844Zm13.237,81.959a9.072,9.072,0,0,0,2.845,6.741,9.534,9.534,0,0,0,6.927,2.784,9.793,9.793,0,0,0,3.774-.742,9.416,9.416,0,0,0,3.092-2.042,10.464,10.464,0,0,0,2.1-3.03,8.7,8.7,0,0,0,.8-3.711V534.128a9.088,9.088,0,0,0-2.845-6.742,9.537,9.537,0,0,0-6.928-2.783,9.4,9.4,0,0,0-6.741,2.659,9.538,9.538,0,0,0-3.031,6.495Z" transform="translate(11.914 0.064)" fill="#fff"/><path d="M637.35,490.58a6.464,6.464,0,0,1,1.918-4.763,6.32,6.32,0,0,1,4.639-1.917,6.533,6.533,0,0,1,4.7,1.917,6.374,6.374,0,0,1,1.98,4.763v98.165a6.551,6.551,0,0,1-6.68,6.68,6.651,6.651,0,0,1-6.557-6.68Z" transform="translate(18.882 0.064)" fill="#fff"/><path d="M701.8,552.3A22.025,22.025,0,0,1,700,561.142a23.387,23.387,0,0,1-12.248,12.247,23.162,23.162,0,0,1-17.875,0,23.22,23.22,0,0,1-12.31-12.247,22.065,22.065,0,0,1-1.794-8.845V513.886a22.045,22.045,0,0,1,1.794-8.845,23.387,23.387,0,0,1,12.248-12.248,23.163,23.163,0,0,1,17.876,0A23.219,23.219,0,0,1,700,505.041a22.005,22.005,0,0,1,1.794,8.845Zm-13.361-38.411a9.078,9.078,0,0,0-2.844-6.742,9.389,9.389,0,0,0-6.8-2.784,9.484,9.484,0,0,0-6.99,2.784,9.18,9.18,0,0,0-2.783,6.742V552.3a8.722,8.722,0,0,0,.8,3.712,10.489,10.489,0,0,0,2.1,3.03,9.4,9.4,0,0,0,3.092,2.041,9.773,9.773,0,0,0,3.774.742,9.324,9.324,0,0,0,6.865-2.783,9.182,9.182,0,0,0,2.783-6.742Z" transform="translate(21.63 1.123)" fill="#feb32a"/><path d="M653.986,577.7a4.392,4.392,0,0,1,4.391-4.392h41.311a4.415,4.415,0,0,1,4.432,4.351,4.346,4.346,0,0,1-4.432,4.432H658.377a4.391,4.391,0,0,1-4.391-4.391Z" transform="translate(21.363 13.399)" fill="#feb32a"/><path d="M737.956,506.824a6.469,6.469,0,0,0-4.762-1.918H715.237V490.273a6.562,6.562,0,0,0-1.979-4.824,6.924,6.924,0,0,0-4.825-1.98,6.37,6.37,0,0,0-4.762,1.98,6.678,6.678,0,0,0-1.918,4.824v83.938a22.555,22.555,0,0,0,1.856,9.092,23.5,23.5,0,0,0,12.433,12.434,22.568,22.568,0,0,0,9.093,1.855,6.567,6.567,0,0,0,4.824-1.979,7.169,7.169,0,0,0,.581-.7,6.784,6.784,0,0,0-5.406-10.929,9.5,9.5,0,0,1-6.8-2.721,9.778,9.778,0,0,1-3.094-6.68V518.143h17.957a6.655,6.655,0,0,0,6.68-6.556A6.47,6.47,0,0,0,737.956,506.824Z" transform="translate(28.487 0)" fill="#fff"/></g></svg>