<svg xmlns="http://www.w3.org/2000/svg" xmlns:xlink="http://www.w3.org/1999/xlink" width="274.566" height="121.636" viewBox="0 0 274.566 121.636"><defs><linearGradient id="a" x1="0.5" x2="0.5" y2="1" gradientUnits="objectBoundingBox"><stop offset="0" stop-color="#004ba2"/><stop offset="1" stop-color="#48b1ef"/></linearGradient></defs><g transform="translate(-510.753 -483.469)"><path d="M518.005,590.6a10.127,10.127,0,0,0,7.252-2.9,10.422,10.422,0,0,0,3.3-7.12V490.721a7.2,7.2,0,0,1,7.252-7.252,6.789,6.789,0,0,1,5.075,2.11,7.116,7.116,0,0,1,2.044,5.142v89.464a24.046,24.046,0,0,1-1.978,9.691A25.052,25.052,0,0,1,527.7,603.128a24.054,24.054,0,0,1-9.692,1.977,7.252,7.252,0,1,1,0-14.5Z" transform="translate(0 0)" fill="url(#a)"/><path d="M543.91,532.086a23.474,23.474,0,0,1,1.912-9.427A24.942,24.942,0,0,1,558.874,509.6a24.689,24.689,0,0,1,19.053,0,24.769,24.769,0,0,1,13.12,13.054,23.515,23.515,0,0,1,1.912,9.427v40.94a23.494,23.494,0,0,1-1.912,9.426,24.939,24.939,0,0,1-13.054,13.054,24.688,24.688,0,0,1-19.053,0,24.751,24.751,0,0,1-13.119-13.054,23.452,23.452,0,0,1-1.912-9.426Zm14.241,40.94a9.673,9.673,0,0,0,3.031,7.185,10.587,10.587,0,0,0,14.7,0,9.785,9.785,0,0,0,2.966-7.185v-40.94a9.3,9.3,0,0,0-.857-3.956,11.2,11.2,0,0,0-2.241-3.23,10.045,10.045,0,0,0-3.3-2.175,10.418,10.418,0,0,0-4.022-.791,9.944,9.944,0,0,0-7.318,2.966,9.791,9.791,0,0,0-2.965,7.186Z" transform="translate(7.454 5.446)" fill="url(#a)"/><path d="M590.63,491.02a6.982,6.982,0,0,1,7.12-7.12,7.091,7.091,0,0,1,6.989,7.12v24.4a31.578,31.578,0,0,1,4.944-1.713,22,22,0,0,1,5.471-.66,23.842,23.842,0,0,1,9.559,1.912,24.938,24.938,0,0,1,13.054,13.054,23.511,23.511,0,0,1,1.912,9.427v40.94a23.493,23.493,0,0,1-1.912,9.426,24.746,24.746,0,0,1-13.12,13.054,24.685,24.685,0,0,1-19.052,0A24.926,24.926,0,0,1,592.542,587.8a23.454,23.454,0,0,1-1.912-9.426Zm14.109,87.355a9.67,9.67,0,0,0,3.032,7.185,10.162,10.162,0,0,0,7.383,2.968,10.438,10.438,0,0,0,4.022-.791,10.033,10.033,0,0,0,3.3-2.177,11.153,11.153,0,0,0,2.241-3.23,9.277,9.277,0,0,0,.857-3.955v-40.94a9.685,9.685,0,0,0-3.033-7.186,10.166,10.166,0,0,0-7.384-2.966,10.021,10.021,0,0,0-7.185,2.834,10.167,10.167,0,0,0-3.231,6.923Z" transform="translate(17.956 0.097)" fill="url(#a)"/><path d="M637.35,491.02a6.89,6.89,0,0,1,2.044-5.077,6.737,6.737,0,0,1,4.945-2.043,6.963,6.963,0,0,1,5.009,2.043,6.794,6.794,0,0,1,2.11,5.077V595.647a6.982,6.982,0,0,1-7.12,7.12,7.089,7.089,0,0,1-6.989-7.12Z" transform="translate(28.458 0.097)" fill="url(#a)"/><path d="M704.825,556.332a23.472,23.472,0,0,1-1.912,9.427,24.927,24.927,0,0,1-13.054,13.054,24.685,24.685,0,0,1-19.052,0,24.747,24.747,0,0,1-13.12-13.054,23.514,23.514,0,0,1-1.912-9.427V515.393a23.5,23.5,0,0,1,1.912-9.427,24.927,24.927,0,0,1,13.054-13.054,24.69,24.69,0,0,1,19.053,0,24.75,24.75,0,0,1,13.119,13.054,23.455,23.455,0,0,1,1.912,9.427Zm-14.241-40.939a9.676,9.676,0,0,0-3.031-7.186,10.588,10.588,0,0,0-14.7,0,9.784,9.784,0,0,0-2.966,7.186v40.939a9.3,9.3,0,0,0,.857,3.956,11.187,11.187,0,0,0,2.241,3.23,10.018,10.018,0,0,0,3.3,2.175,10.413,10.413,0,0,0,4.022.791,9.939,9.939,0,0,0,7.317-2.967,9.787,9.787,0,0,0,2.967-7.186Z" transform="translate(32.601 1.693)" fill="#ffb300"/><path d="M653.986,577.988a4.681,4.681,0,0,1,4.68-4.681H702.7a4.705,4.705,0,0,1,4.724,4.637,4.632,4.632,0,0,1-4.724,4.724h-44.03a4.68,4.68,0,0,1-4.68-4.68Z" transform="translate(32.198 20.195)" fill="#ffb300"/><path d="M740.339,508.362a6.9,6.9,0,0,0-5.076-2.044H716.125v-15.6a6.994,6.994,0,0,0-2.109-5.142,7.38,7.38,0,0,0-5.143-2.11,6.789,6.789,0,0,0-5.076,2.11,7.117,7.117,0,0,0-2.044,5.142v89.464a24.044,24.044,0,0,0,1.978,9.691,25.053,25.053,0,0,0,13.251,13.252,24.055,24.055,0,0,0,9.692,1.977A7,7,0,0,0,731.816,603a7.641,7.641,0,0,0,.62-.747,7.231,7.231,0,0,0-5.761-11.648,10.128,10.128,0,0,1-7.252-2.9,10.422,10.422,0,0,1-3.3-7.12V520.426h19.139a7.093,7.093,0,0,0,7.12-6.987A6.9,6.9,0,0,0,740.339,508.362Z" transform="translate(42.936 0)" fill="url(#a)"/></g></svg>