<svg id="Group_38" data-name="Group 38" xmlns="http://www.w3.org/2000/svg" width="87.209" height="59.897" viewBox="0 0 87.209 59.897">
  <path id="Path_30" data-name="Path 30" d="M1251.03,677.79a12.39,12.39,0,0,0-1.939-1.968,12.269,12.269,0,0,0-19.827,7.589,12.422,12.422,0,0,0-.172,1.973,12.285,12.285,0,1,0,21.938-7.594Zm-5.349,9.929a3.327,3.327,0,0,1-.56,1.859,4.182,4.182,0,0,1-2.872,1.707v1.968h-1.89v-1.832a7.754,7.754,0,0,1-3.278-.831l.578-2.256a6.8,6.8,0,0,0,3.2.849,1.978,1.978,0,0,0,1.653-.62.962.962,0,0,0,.2-.574c0-.735-.616-1.2-2.044-1.679-1.652-.555-2.869-1.293-3.294-2.522a3.011,3.011,0,0,1-.177-1.007,3.275,3.275,0,0,1,1.986-3.007,5.136,5.136,0,0,1,1.274-.424v-1.833h1.89v1.7a6.939,6.939,0,0,1,2.8.636l-.56,2.18a6.388,6.388,0,0,0-2.776-.657,2.51,2.51,0,0,0-1.031.184.955.955,0,0,0-.628.9c0,.638.674,1.043,2.314,1.66,1.953.689,2.907,1.565,3.15,2.879A3.935,3.935,0,0,1,1245.681,687.719Z" transform="translate(-1203.017 -642.828)" fill="#45adec"/>
  <path id="Path_31" data-name="Path 31" d="M1285.46,695.808l-.008-.048a2.573,2.573,0,0,0-.111-.4h0c-.029-.078-.049-.156-.084-.23.035.074.055.153.084.23V674.174a6.213,6.213,0,0,0-.084-1v-2.1a2.068,2.068,0,0,0-2.067-2.068H1211a2.069,2.069,0,0,0-2.069,2.068v30.79a2.069,2.069,0,0,0,2.069,2.069h72.186a2.069,2.069,0,0,0,2.067-2.069v-1.213l.084-.215v-3.339l-.084.216.084-.216h0v0a2.363,2.363,0,0,0,.126-.464,2.667,2.667,0,0,0,.022-.273c0-.057.01-.114.008-.171A2.378,2.378,0,0,0,1285.46,695.808Zm-72.037,5.531a2.068,2.068,0,0,1-2.067-2.068v-21.7a2.475,2.475,0,0,0,1.458.481h2.761a2.527,2.527,0,0,0,2.5-2.5v-2.761a2.46,2.46,0,0,0-.326-1.207h41.286l.167.163.117-.163h21.451a2.069,2.069,0,0,1,2.069,2.068v21.588a2.476,2.476,0,0,0-1.291-.371h-2.76a2.467,2.467,0,0,0-.991.208,2.508,2.508,0,0,0-1.51,2.292v2.761a2.4,2.4,0,0,0,.067.492,2.628,2.628,0,0,0,.259.715Z" transform="translate(-1208.935 -644.03)" fill="#45adec"/>
  <path id="Path_32" data-name="Path 32" d="M1248.772,667.765l.94.366h6.928a12.231,12.231,0,0,0-19.714,0h11.7Z" transform="translate(-1200.717 -645.749)" fill="#45adec"/>
  <path id="Path_33" data-name="Path 33" d="M1293.067,676l-67.276-26.162a2.068,2.068,0,0,0-2.678,1.177l-8.191,21.065h2.6l5.493-14.123a2.468,2.468,0,0,0,1.185.977l2.571,1a2.509,2.509,0,0,0,3.238-1.424l1-2.572a2.457,2.457,0,0,0,.134-1.244l44.711,17.387,9.184,3.571,4.841,1.882a2.068,2.068,0,0,1,1.178,2.678l-4.883,12.557v6.675l8.076-20.767A2.069,2.069,0,0,0,1293.067,676Z" transform="translate(-1207.177 -649.697)" fill="#45adec"/>
</svg>
