<svg xmlns="http://www.w3.org/2000/svg" width="94.639" height="65" viewBox="0 0 94.639 65">
  <g id="Group_14" data-name="Group 14" transform="translate(-1208.935 -649.697)">
    <path id="Path_30" data-name="Path 30" d="M1252.9,678.19a13.467,13.467,0,0,0-2.1-2.135,13.314,13.314,0,0,0-21.516,8.236,13.481,13.481,0,0,0-.187,2.141,13.332,13.332,0,1,0,23.807-8.241Zm-5.8,10.775a3.61,3.61,0,0,1-.608,2.017,4.538,4.538,0,0,1-3.117,1.853v2.135h-2.051v-1.988a8.418,8.418,0,0,1-3.557-.9l.628-2.448a7.382,7.382,0,0,0,3.473.921,2.146,2.146,0,0,0,1.794-.672,1.045,1.045,0,0,0,.215-.623c0-.8-.668-1.3-2.218-1.822-1.793-.6-3.114-1.4-3.575-2.737a3.274,3.274,0,0,1-.192-1.092,3.554,3.554,0,0,1,2.155-3.264,5.567,5.567,0,0,1,1.382-.46v-1.989h2.051v1.842a7.532,7.532,0,0,1,3.035.691l-.608,2.365a6.929,6.929,0,0,0-3.012-.713,2.719,2.719,0,0,0-1.119.2,1.036,1.036,0,0,0-.681.973c0,.692.732,1.131,2.511,1.8,2.12.748,3.154,1.7,3.418,3.125A4.251,4.251,0,0,1,1247.094,688.965Z" transform="translate(8.139 9.448)" fill="#fff"/>
    <path id="Path_31" data-name="Path 31" d="M1291.979,698.092l-.009-.052a2.767,2.767,0,0,0-.121-.438h0c-.031-.084-.053-.17-.091-.25.038.08.06.166.091.25V674.615a6.762,6.762,0,0,0-.091-1.088v-2.283a2.245,2.245,0,0,0-2.244-2.245H1211.18a2.245,2.245,0,0,0-2.245,2.245v33.413a2.245,2.245,0,0,0,2.245,2.245h78.336a2.245,2.245,0,0,0,2.244-2.245v-1.317l.091-.233v-3.623l-.091.234.091-.234h0v0a2.524,2.524,0,0,0,.136-.5,2.685,2.685,0,0,0,.024-.3c0-.062.011-.124.008-.185A2.541,2.541,0,0,0,1291.979,698.092Zm-78.174,6a2.243,2.243,0,0,1-2.243-2.245V678.3a2.684,2.684,0,0,0,1.582.522h3a2.742,2.742,0,0,0,2.714-2.713v-3a2.673,2.673,0,0,0-.354-1.31h44.8l.181.177.126-.177h23.279a2.245,2.245,0,0,1,2.245,2.245v23.426a2.688,2.688,0,0,0-1.4-.4h-3a2.677,2.677,0,0,0-1.075.226,2.722,2.722,0,0,0-1.638,2.487v3a2.6,2.6,0,0,0,.073.534,2.845,2.845,0,0,0,.281.776Z" transform="translate(0 7.794)" fill="#fff"/>
    <path id="Path_32" data-name="Path 32" d="M1249.782,668.159l1.021.4h7.518a13.273,13.273,0,0,0-21.394,0h12.7Z" transform="translate(11.303 5.43)" fill="#fff"/>
    <path id="Path_33" data-name="Path 33" d="M1299.725,678.241l-73.008-28.39a2.245,2.245,0,0,0-2.906,1.277l-8.889,22.86h2.817l5.961-15.327a2.68,2.68,0,0,0,1.286,1.06l2.79,1.085a2.723,2.723,0,0,0,3.514-1.546l1.085-2.791a2.668,2.668,0,0,0,.145-1.35l48.52,18.869,9.967,3.876,5.253,2.043a2.245,2.245,0,0,1,1.279,2.906l-5.3,13.626v7.244L1301,681.145A2.245,2.245,0,0,0,1299.725,678.241Z" transform="translate(2.417 0)" fill="#fff"/>
  </g>
</svg>
