<svg id="Group_35" data-name="Group 35" xmlns="http://www.w3.org/2000/svg" width="65.067" height="64.734" viewBox="0 0 65.067 64.734">
  <path id="Path_64" data-name="Path 64" d="M1220.281,903.61c-13.676,1-27.018-5-27.018-5l-15.678,15.677s6,13.342,5,27.018a49,49,0,0,0,6.965-2.331c.691-.283-3.048-11.334-2.295-11.678.858-.392,6.217,9.914,7.134,9.439a49.742,49.742,0,0,0,12.483-9.016C1217.135,917.447,1220.281,903.61,1220.281,903.61Z" transform="translate(-1155.213 -876.568)" fill="#45adec"/>
  <path id="Path_65" data-name="Path 65" d="M1163.154,868.872a5.117,5.117,0,0,0-7.237,0l-2.72,2.719-19.013-19.012a2.358,2.358,0,1,0-3.335,3.335l19.013,19.013-2.386,2.386a5.117,5.117,0,0,0,0,7.236l3.386,3.386,15.677-15.677Z" transform="translate(-1130.159 -851.888)" fill="#45adec"/>
</svg>
