<svg id="Group_34" data-name="Group 34" xmlns="http://www.w3.org/2000/svg" width="94.734" height="63.756" viewBox="0 0 94.734 63.756">
  <path id="Path_66" data-name="Path 66" d="M1390.093,988.811a21.583,21.583,0,0,1-1.828,3.684c-1.293,1.724-3.273,2.151-5.361,2.127-.849-.01-1.9-.277-2.491.12-.545.365-.595,1.461-.862,2.235a10.779,10.779,0,0,1-20.62-1.111c-.084-.371-.171-.742-.27-1.177H1337.4c-1.732,6.426-5.649,9.663-11.346,9.409-5.12-.229-9.112-3.9-10.142-9.48-1.561,0-3.169-.087-4.765.019-2.862.192-5.2-1.524-5.1-5.02.161-5.718.042-11.443.045-17.165,0-1.677.734-2.581,2.095-2.6,1.4-.024,2.2.937,2.2,2.661q.006,8.139,0,16.276v1.5c1.959,0,3.778.042,5.592-.042.3-.014.664-.539.835-.9a10.336,10.336,0,0,1,8.964-6.4c4.541-.364,8.169,1.455,10.259,5.458.9,1.72,1.9,1.946,3.517,1.915,4.041-.074,8.084-.024,12.127-.024h1.44V944.619h-42.736c0,1.592.019,3.182-.005,4.772a2.082,2.082,0,0,1-2.244,2.332,1.94,1.94,0,0,1-2.036-1.985c-.041-1.864-.055-3.731,0-5.594a3.968,3.968,0,0,1,3.316-3.673,10.68,10.68,0,0,1,1.78-.109q20.554-.009,41.107,0c3.616,0,5.106,1.494,5.107,5.1V949.9h1.466q10.469,0,20.937,0c3.863,0,6.348,2.1,6.871,5.916.978,7.132,1.967,14.264,2.79,21.413.274,2.385.01,4.828.092,7.241a18.413,18.413,0,0,0,.528,2.817Zm-5.04-5.978c-.682,0-1.4.022-2.12,0a2.194,2.194,0,0,1-2.4-2.1c-.035-1.284.9-2.161,2.406-2.216.745-.028,1.492-.006,2.381-.006l-.455-3.137h-1.49c-4.68,0-9.361.007-14.042,0a6.291,6.291,0,0,1-6.561-6.575q-.01-6.612,0-13.224v-1.353h-5.1v35.934c1.143.4,1.626-.026,2.058-.967a11.176,11.176,0,0,1,1.94-2.949,10.817,10.817,0,0,1,17.682,2.968c.2.427.633.992,1.013,1.037a17.521,17.521,0,0,0,3.439.018,1.9,1.9,0,0,0,1.8-2.193C1385.45,986.393,1385.252,984.723,1385.052,982.832Zm-17.942-28.61v13.823c0,2.494.559,3.074,3.057,3.082,4.289.014,8.579.006,12.869,0,.4,0,.8-.048,1.306-.08-.66-5.156-1.269-10.147-1.955-15.127a1.952,1.952,0,0,0-2.1-1.686C1375.962,954.2,1371.633,954.222,1367.11,954.222Zm2.338,45.566a6.309,6.309,0,0,0,6.384-6.216,6.338,6.338,0,1,0-12.675-.094A6.309,6.309,0,0,0,1369.448,999.789Zm-42.683,0a6.375,6.375,0,0,0,6.339-6.3,6.48,6.48,0,0,0-6.356-6.32,6.311,6.311,0,1,0,.017,12.622Z" transform="translate(-1295.358 -940.357)" fill="#45adec"/>
  <path id="Path_67" data-name="Path 67" d="M1296,963.757a3.249,3.249,0,0,1,3.085-1.513c5.947.066,11.9.01,17.844.054a2.775,2.775,0,0,1,1.954.615,3.168,3.168,0,0,1,.541,2.279c-.185,1-1.1,1.375-2.158,1.372-5.821-.021-11.641-.01-17.462-.01a6.036,6.036,0,0,0-.892.007,2.649,2.649,0,0,1-2.914-1.533Z" transform="translate(-1296 -938.957)" fill="#45adec"/>
  <path id="Path_68" data-name="Path 68" d="M1312.835,958.463c-3.44,0-6.879.005-10.319,0-1.61,0-2.436-.728-2.435-2.1,0-1.344.859-2.133,2.434-2.136q10.383-.019,20.765,0c1.553,0,2.446.817,2.454,2.132s-.892,2.1-2.453,2.1Q1318.059,958.47,1312.835,958.463Z" transform="translate(-1295.739 -939.47)" fill="#45adec"/>
  <path id="Path_69" data-name="Path 69" d="M1322.285,966.552a2,2,0,0,1-2.045-2.1,2.065,2.065,0,0,1,2.111-2.182,2.22,2.22,0,0,1,2.005,2.342A1.982,1.982,0,0,1,1322.285,966.552Z" transform="translate(-1294.449 -938.955)" fill="#45adec"/>
  <path id="Path_70" data-name="Path 70" d="M1367.642,990.412a2.04,2.04,0,1,1-4.079.024,2.072,2.072,0,0,1,2.126-2.174A1.964,1.964,0,0,1,1367.642,990.412Z" transform="translate(-1291.679 -937.293)" fill="#45adec"/>
  <path id="Path_71" data-name="Path 71" d="M1327.657,990.551a2.021,2.021,0,0,1-2.146,2.018,2.139,2.139,0,1,1,0-4.278A2.282,2.282,0,0,1,1327.657,990.551Z" transform="translate(-1294.25 -937.291)" fill="#45adec"/>
</svg>
