<svg xmlns="http://www.w3.org/2000/svg" width="27" height="27" viewBox="0 0 27 27">
  <g id="Group_20" data-name="Group 20" transform="translate(-1523.26 -794.031)">
    <path id="Path_50" data-name="Path 50" d="M1536.76,794.031a13.5,13.5,0,1,0,13.5,13.5A13.515,13.515,0,0,0,1536.76,794.031Zm0,25.159a11.659,11.659,0,1,1,11.659-11.659A11.672,11.672,0,0,1,1536.76,819.19Z" fill="#fff"/>
    <path id="Path_51" data-name="Path 51" d="M1552.812,804.5l-5.671,3.965a3.23,3.23,0,0,1,1.944,1.945l3.965-5.672A.171.171,0,0,0,1552.812,804.5Z" transform="translate(-9.227 -4.033)" fill="#fff"/>
    <path id="Path_52" data-name="Path 52" d="M1537.694,817.912l-3.965,5.671a.171.171,0,0,0,.237.238l5.672-3.965a3.229,3.229,0,0,1-1.945-1.944Z" transform="translate(-4.033 -9.227)" fill="#fff"/>
    <path id="Path_53" data-name="Path 53" d="M1544.333,813.632a1.473,1.473,0,1,0,1.041,2.514h0a1.472,1.472,0,0,0-1.041-2.514Z" transform="translate(-7.572 -7.573)" fill="#fff"/>
  </g>
</svg>
