<svg xmlns="http://www.w3.org/2000/svg" width="26.794" height="28.84" viewBox="0 0 26.794 28.84">
  <g id="Group_80" data-name="Group 80" transform="translate(0)">
    <g id="Group_162" data-name="Group 162" transform="translate(0)">
      <path id="Path_587" data-name="Path 587" d="M1820.789,744.954a1.425,1.425,0,0,1-1.333-.819c-.122-.243-.255-.486-.4-.743l-.175-.321-.52-.964.937-.566.208-.123c.128-.075.249-.146.353-.216a6.537,6.537,0,0,0,2.954-4.436,5.7,5.7,0,0,0,.058-.856v-.029c.017-.827.029-1.653.041-2.48q.01-.683.021-1.366V732c.006-.39.013-.793.031-1.2a7.977,7.977,0,0,1,1.278-3.894,8.662,8.662,0,0,1,5.258-3.892c0-.249,0-.484.011-.71a2.178,2.178,0,0,1,.684-1.535,2.167,2.167,0,0,1,3.632,1.469c.012.247.022.494.03.733a8.383,8.383,0,0,1,2.176.856,8.632,8.632,0,0,1,4.4,6.072,9.588,9.588,0,0,1,.132,1.664l.005.243c.033,1.35.049,2.676.065,4.028a6.294,6.294,0,0,0,2.551,5.028,5.891,5.891,0,0,0,.576.39c.116.073.231.145.345.22l.042.025.064.038.939.564-.67,1.246c-.171.319-.338.629-.509.938a1.31,1.31,0,0,1-.778.609,1.334,1.334,0,0,1-.5.059h-2.113q-9.9,0-19.8,0Zm10.91-20.629a1.323,1.323,0,0,1-1,.772,6.451,6.451,0,0,0-4.5,3.026,5.643,5.643,0,0,0-.931,2.776c-.016.372-.022.742-.029,1.134v.038q-.011.681-.021,1.362c-.012.831-.024,1.662-.041,2.493v.029a7.617,7.617,0,0,1-.094,1.218,8.752,8.752,0,0,1-3.309,5.481q9.409-.005,18.817,0h1.16l-.007-.005a8.574,8.574,0,0,1-3.4-6.786c-.016-1.345-.032-2.663-.065-4l-.005-.254a7.745,7.745,0,0,0-.091-1.274,6.344,6.344,0,0,0-3.284-4.512,6.591,6.591,0,0,0-2.209-.748A1.279,1.279,0,0,1,1831.7,724.326Zm-1.434-1.487h0Z" transform="translate(-1818.366 -720.194)" fill="#45adec"/>
    </g>
    <g id="Group_163" data-name="Group 163" transform="translate(9.35 24.811)">
      <path id="Path_588" data-name="Path 588" d="M1895.63,918.486a4,4,0,0,1-2.73-1.063,4.134,4.134,0,0,1-1.328-2.9l2.3-.065a1.85,1.85,0,0,0,.59,1.277,1.7,1.7,0,0,0,1.268.45,1.756,1.756,0,0,0,1.626-1.686l2.3-.016a4.085,4.085,0,0,1-3.808,4C1895.773,918.484,1895.7,918.486,1895.63,918.486Z" transform="translate(-1891.572 -914.457)" fill="#45adec"/>
    </g>
  </g>
</svg>
