<svg xmlns="http://www.w3.org/2000/svg" width="25.902" height="22.613" viewBox="0 0 25.902 22.613">
  <path id="Path_593" data-name="Path 593" d="M1220.209-221.35c0-.515-.032-.992.007-1.464a2.5,2.5,0,0,1,1.52-2.2,2.8,2.8,0,0,1,1.175-.222q2.8-.025,5.6,0a2.524,2.524,0,0,1,1.9.79,2.112,2.112,0,0,1,.64,1.284c.031.436.052.873.074,1.31.008.155,0,.311,0,.489.084.005.155.014.226.014,1.824,0,3.649,0,5.473,0a1.734,1.734,0,0,1,1.68,1.106,1.451,1.451,0,0,1,.107.549q.008,7.68,0,15.361a1.646,1.646,0,0,1-1.238,1.614,2.332,2.332,0,0,1-.7.077q-7.253.006-14.507,0c-2.523,0-5.046,0-7.569,0a1.822,1.822,0,0,1-1.416-.551,1.656,1.656,0,0,1-.462-1.144q0-7.681,0-15.361a1.7,1.7,0,0,1,1.071-1.507,2.387,2.387,0,0,1,.825-.147q2.655.006,5.31,0Zm6.563,12.652-.615-1.041a.32.32,0,0,1,.017-.363c.082-.129.156-.263.229-.4s.037-.249-.122-.252q-.62-.012-1.24,0c-.148,0-.2.107-.123.239s.155.279.239.414a.333.333,0,0,1,0,.381c-.18.295-.361.59-.53.891-.084.149-.127.123-.2-.006-.373-.65-.753-1.3-1.129-1.945-.179-.309-.307-.353-.631-.2a7.987,7.987,0,0,0-1.586.914,5.971,5.971,0,0,0-1.673,1.934,14.267,14.267,0,0,0-.556,1.334,1.849,1.849,0,0,0-.089.39c-.031.193.16.35.417.35h12.061c.332,0,.664,0,1,0,.179,0,.366-.209.322-.36-.1-.344-.193-.692-.318-1.027a5.689,5.689,0,0,0-1.011-1.684,6.7,6.7,0,0,0-2.576-1.844c-.3-.123-.412-.188-.641.216-.362.641-.742,1.272-1.117,1.906A1.326,1.326,0,0,1,1226.772-208.7Zm-1.1-9.226a2.563,2.563,0,0,0-1.855.657,2.73,2.73,0,0,0-.974,1.8,3.851,3.851,0,0,0,.135,1.477,3.356,3.356,0,0,0,.747,1.408,2.486,2.486,0,0,0,2.629.814,2.755,2.755,0,0,0,1.666-1.373,4.007,4.007,0,0,0,.435-1.293,3.113,3.113,0,0,0-.13-1.722A2.753,2.753,0,0,0,1225.668-217.924Zm3.71-3.437a.356.356,0,0,0,.017-.063c0-.407,0-.813,0-1.22a.813.813,0,0,0-.806-.834c-1.958.015-3.917.012-5.876.006a.722.722,0,0,0-.766.644,13.267,13.267,0,0,0-.013,1.467Z" transform="translate(-1212.715 225.251)" fill="#45adec"/>
</svg>
