<svg id="Group_81" data-name="Group 81" xmlns="http://www.w3.org/2000/svg" width="27.75" height="27.685" viewBox="0 0 27.75 27.685">
  <path id="Path_589" data-name="Path 589" d="M2190.163,771.127c-.321.535-.652,1.145-1.039,1.718a1.66,1.66,0,0,0,1.051,2.584c.315.064.637.089.95.16a1.682,1.682,0,0,1,1.544,1.8c-.1,1.415.706,3.12-1.068,4.091a2.259,2.259,0,0,1-1.029.226,1.6,1.6,0,0,0-1.666,1.25,1.285,1.285,0,0,0,.187,1.393,4.8,4.8,0,0,1,.9,1.572c.374,1.437-2.528,4.2-3.946,3.753a7.456,7.456,0,0,1-1.642-.975,1.8,1.8,0,0,0-2.3.892c-.691,2.822-.691,2.822-3.635,2.821-2.092,0-2.4-.261-2.75-2.351a1.611,1.611,0,0,0-2.641-1.128c-1.8,1.274-2.224,1.239-3.78-.316l-.478-.478c-1.409-1.409-1.456-1.956-.3-3.555a1.654,1.654,0,0,0-1.116-2.775c-2.126-.4-2.383-.708-2.384-2.855,0-.29,0-.579,0-.869,0-1.774.436-2.277,2.186-2.545a1.677,1.677,0,0,0,1.22-2.833c-1.143-1.618-1.095-2.163.313-3.562.159-.159.317-.32.477-.478,1.57-1.549,2.013-1.586,3.776-.313a1.65,1.65,0,0,0,2.631-1.043,3.607,3.607,0,0,1,.415-1.555,3.138,3.138,0,0,1,1.556-.943,7.523,7.523,0,0,1,1.922-.039c1.584.009,2.278.462,2.364,2.024.07,1.268.816,1.616,1.753,1.891a1.147,1.147,0,0,0,.771-.176c.418-.236.763-.679,1.2-.785a2.563,2.563,0,0,1,1.787.008,15.9,15.9,0,0,1,2.4,2.34A3.346,3.346,0,0,1,2190.163,771.127Zm-2,15.05a3.781,3.781,0,0,0-.377-.554c-1.049-1.082-1.122-2.107-.512-3.6a2.723,2.723,0,0,1,2.783-2.05c.657-.005.928-.3.847-.958a3.7,3.7,0,0,1,0-.868c.073-.614-.166-.882-.795-.888-1.508-.016-2.573-.6-2.8-2.248-.042-.3-.359-.569-.392-.869a2.756,2.756,0,0,1,.092-1.4,11.372,11.372,0,0,1,1.147-1.671l-1.635-1.8a3.611,3.611,0,0,0-.568.37c-1.132,1.145-2.229,1.168-3.766.514a2.639,2.639,0,0,1-1.98-2.621c-.014-.706-.281-1.014-1.057-.972-1.895.1-1.433-.281-1.818,1.547-.053.251-.074.51-.136.759-.237.943-3.405,2.2-4.218,1.682-.217-.139-.424-.291-.635-.438l-1.294-.9a7.937,7.937,0,0,1-.777.947,7.19,7.19,0,0,1-.969.633c.308.393.365.556.474.664a3.077,3.077,0,0,1,.553,4.021c-.538,1.111-1.065,1.722-2.248,1.782-.224.011-.5-.026-.659.088-.238.171-.539.442-.562.694-.17,1.859-.15,1.861,1.688,2.132.127.019.256.032.381.059.817.173,2.406,3.167,2.076,3.938a3.906,3.906,0,0,1-.418.643c-.34.494-.683.986-.939,1.355l1.635,1.827c1.258-.79,2.165-1.805,4.1-1.05,1.985.775,1.957,2.153,2.242,3.633h2.467c.31-1.457.283-2.806,2.235-3.635,2-.85,2.891.212,4.119.979Z" transform="translate(-2165.017 -764.73)" fill="#45adec"/>
  <path id="Path_590" data-name="Path 590" d="M2217.335,811.266a6.032,6.032,0,1,1-6.018-6.087A6.013,6.013,0,0,1,2217.335,811.266Zm-6.045-4.286a4.234,4.234,0,0,0-4.224,4.24,4.237,4.237,0,1,0,8.475-.029A4.226,4.226,0,0,0,2211.29,806.98Z" transform="translate(-2197.459 -797.328)" fill="#45adec"/>
</svg>
