<svg id="Group_82" data-name="Group 82" xmlns="http://www.w3.org/2000/svg" width="25.34" height="25.328" viewBox="0 0 25.34 25.328">
  <path id="Path_591" data-name="Path 591" d="M2158.258,233.8h-7.719a1.179,1.179,0,0,0,.136.065l2.654.8a1.168,1.168,0,0,1,.935,1.257q0,8.115,0,16.23v.3h3.994v-.239c0-1.626,0-3.253,0-4.879a1.138,1.138,0,0,1,1.653-1.034,1.053,1.053,0,0,1,.628.973q.011,3.2,0,6.393a1.126,1.126,0,0,1-1.186,1.089q-2.42,0-4.839,0h-.251c0,.3,0,.571,0,.845a1.145,1.145,0,0,1-1.464,1.2q-4.867-.969-9.731-1.946c-.225-.045-.45-.086-.674-.136a1.141,1.141,0,0,1-.9-1.082c0-.046,0-.092,0-.138q0-10.347,0-20.7a1.288,1.288,0,0,1,.3-.91,1.26,1.26,0,0,1,.993-.387h16.523a1.142,1.142,0,0,1,1.236,1.238q0,3.089,0,6.177a1.124,1.124,0,0,1-.77,1.1,1.136,1.136,0,0,1-1.259-.361,1.189,1.189,0,0,1-.258-.786q0-2.41,0-4.82Z" transform="translate(-2141.496 -231.508)" fill="#45adec"/>
  <path id="Path_592" data-name="Path 592" d="M2245.085,283.054c-.421-.419-.8-.8-1.177-1.175a1.1,1.1,0,0,1-.321-1.044,1.079,1.079,0,0,1,.793-.867,1.1,1.1,0,0,1,1.156.3q1.185,1.179,2.364,2.363c.241.241.483.481.723.723a1.141,1.141,0,0,1,.011,1.682q-1.545,1.556-3.1,3.1a1.145,1.145,0,1,1-1.61-1.627c.364-.368.731-.733,1.1-1.1a.377.377,0,0,0,.032-.064h-.24q-2.645,0-5.289,0a1.145,1.145,0,0,1-.712-2.081,1.273,1.273,0,0,1,.763-.212q2.625,0,5.25,0Z" transform="translate(-2223.658 -272.581)" fill="#45adec"/>
</svg>
