<svg id="Group_39" data-name="Group 39" xmlns="http://www.w3.org/2000/svg" width="87.21" height="58.692" viewBox="0 0 87.21 58.692">
  <path id="Path_46" data-name="Path 46" d="M1461.374,748.8l-4.609-.271-.114-3.532-5.495.785.98,37.289-20.713,5.532,26.546-2.746-1.123-34.829,2.112.124,1.172,37.522-35.129,3.1v2.5l37.692-3.326Z" transform="translate(-1375.482 -742.489)" fill="#45adec"/>
  <path id="Path_47" data-name="Path 47" d="M1425.1,788.238l24.6-6.569-.922-35.036-.1-3.649h-.1a41.813,41.813,0,0,0-18.826,4.491l-4.657,2.357-.508.258.508-.073Z" transform="translate(-1375.582 -742.983)" fill="#45adec"/>
  <path id="Path_48" data-name="Path 48" d="M1391.261,745.039l-.113,3.533-4.61.272-1.317,42.146,39.559,3.49v-2.5l-37-3.264,1.172-37.522,2.111-.123-1.122,34.828,34.835,3.605V749.2A89.511,89.511,0,0,0,1391.261,745.039Zm4.826,5.605c.127-.015,12.744-1.205,23.967,3.784a.623.623,0,0,1-.253,1.191.631.631,0,0,1-.252-.054c-.835-.371-1.677-.7-2.523-1.007a52.928,52.928,0,0,0-17.757-2.8c-1.874.016-3.02.122-3.056.126a.622.622,0,1,1-.125-1.237Zm0,7.469a56.133,56.133,0,0,1,18.472,1.813.622.622,0,0,1-.169,1.221.59.59,0,0,1-.168-.023,47.508,47.508,0,0,0-4.877-1.1l-7.948-.78a47.718,47.718,0,0,0-5.185.1.61.61,0,0,1-.681-.556A.621.621,0,0,1,1396.087,758.113Z" transform="translate(-1385.221 -742.528)" fill="#45adec"/>
  <path id="Path_49" data-name="Path 49" d="M1422.307,749.064l-2.337.056-.531.013-.439.01V800.2l2.49-1.661,2.49,1.661V749.024l-1.111.026Z" transform="translate(-1376.951 -741.504)" fill="#45adec"/>
</svg>
