<svg xmlns="http://www.w3.org/2000/svg" width="50.083" height="71.145" viewBox="0 0 50.083 71.145">
  <g id="Group_36" data-name="Group 36" transform="translate(0)">
    <circle id="Ellipse_1" data-name="Ellipse 1" cx="14.876" cy="14.876" r="14.876" transform="translate(6.683)" fill="#45adec"/>
    <path id="Path_34" data-name="Path 34" d="M1331.578,713.471a3.9,3.9,0,0,1,2.34-3.569v-.33a15.5,15.5,0,0,1,2.819-8.918,1.168,1.168,0,0,1-.16-.268l-8.066-19.9a21.547,21.547,0,0,0-12.7,19.64v17.247h19.667A3.9,3.9,0,0,1,1331.578,713.471Z" transform="translate(-1315.811 -646.226)" fill="#45adec"/>
    <path id="Path_35" data-name="Path 35" d="M1334.421,697.327a15.527,15.527,0,0,1,6.544-3.045,3.017,3.017,0,0,1-.031-.309,3.119,3.119,0,1,1,6.239,0,3.087,3.087,0,0,1-.031.309,15.5,15.5,0,0,1,6.095,2.709,21.576,21.576,0,0,0-12.471-16.507Z" transform="translate(-1310.348 -646.226)" fill="#45adec"/>
    <path id="Path_36" data-name="Path 36" d="M1332.832,693.543a1.564,1.564,0,1,0-1.565-1.564A1.564,1.564,0,0,0,1332.832,693.543Z" transform="translate(-1311.274 -643.311)" fill="#45adec"/>
    <path id="Path_37" data-name="Path 37" d="M1331.268,688.564a1.565,1.565,0,1,0,1.565-1.564A1.565,1.565,0,0,0,1331.268,688.564Z" transform="translate(-1311.274 -644.313)" fill="#45adec"/>
    <path id="Path_38" data-name="Path 38" d="M1338.908,684.5v-4.86a.638.638,0,0,0-.974-.542L1334,681.544a.64.64,0,0,1-.674,0l-3.93-2.448a.638.638,0,0,0-.975.542v4.86a.637.637,0,0,0,.975.541l3.93-2.446a.639.639,0,0,1,.674,0l3.929,2.446A.637.637,0,0,0,1338.908,684.5Z" transform="translate(-1312.108 -646.661)" fill="#45adec"/>
    <path id="Path_39" data-name="Path 39" d="M1343.765,691.344c0-.027.015-.051.015-.078a1.559,1.559,0,1,0-3.119,0c0,.027.014.051.015.078.508-.051,1.023-.078,1.545-.078S1343.257,691.293,1343.765,691.344Z" transform="translate(-1308.516 -643.519)" fill="#45adec"/>
    <path id="Path_40" data-name="Path 40" d="M1346.689,692.223a12.919,12.919,0,0,0-3.281,0c-.3.036-.6.079-.9.133a14.062,14.062,0,0,0-11.478,13.021h28.035a14.094,14.094,0,0,0-11.477-13.021C1347.292,692.3,1346.992,692.259,1346.689,692.223Z" transform="translate(-1311.343 -642.811)" fill="#45adec"/>
    <path id="Path_41" data-name="Path 41" d="M1359.624,704.176h-28.078a2.34,2.34,0,0,0,0,4.68h28.078a2.34,2.34,0,0,0,0-4.68Z" transform="translate(-1311.879 -639.271)" fill="#45adec"/>
  </g>
</svg>
